<?xml version="1.0" encoding="utf-8"?>
<!-- Generator: Adobe Illustrator 28.3.0, SVG Export Plug-In . SVG Version: 6.00 Build 0)  -->
<svg version="1.1" id="Layer_1" xmlns="http://www.w3.org/2000/svg" xmlns:xlink="http://www.w3.org/1999/xlink" x="0px" y="0px"
	 viewBox="0 0 512 512" style="enable-background:new 0 0 512 512;" xml:space="preserve">
<style type="text/css">
	.st0{fill:none;stroke:#FDCC67;stroke-width:32;stroke-linecap:round;stroke-linejoin:round;}
</style>
<path class="st0" d="M176,16h160c26.5,0,48,21.5,48,48v384c0,26.5-21.5,48-48,48H176c-26.5,0-48-21.5-48-48V64
	C128,37.5,149.5,16,176,16z"/>
<path class="st0" d="M176,16h24c4.4,0,8,3.6,8,8l0,0c0,8.8,7.2,16,16,16h64c8.8,0,16-7.2,16-16l0,0c0-4.4,3.6-8,8-8h24"/>
</svg>
