<?xml version="1.0" encoding="UTF-8"?>
<svg id="Layer_1" data-name="Layer 1" xmlns="http://www.w3.org/2000/svg" width="480.25" height="362.46" viewBox="0 0 480.25 362.46">
  <path d="M127.93,213.97c.87.13,1.45-.29,2.17-.85,3.62-2.83,7.56-5.74,11.09-8.86,1.58-1.4,3.85-3.02,4.8-4.91s.81-4.5,1.15-6.57c.54-3.36.93-6.75,1.29-10.14.75-6.91,1.42-13.87,3.15-20.62.61-2.35,1.77-5.07,4.17-5.46,4.61-.75,5.63,5.59,6.5,8.67.5,1.77,5.13,19.28,3.07,19.81.4-.1.72-.11.95-.26,7.38-4.83,14.37-10.21,21.48-15.41,4.59-3.36,12.39-6.5,13.98-12.45.47-1.79.61-3.65,1.01-5.45.35-1.57,1.24-3.36,2.84-3.45,1.65-.1,2.85,1.73,3.14,3.17.37,1.86.28,2.47,2.05,1.97s3.73-2.5,5.22-3.5c3.61-2.42,7.22-4.84,10.84-7.24,7.11-4.72,14.24-9.4,21.44-13.98,12.87-8.19,26.21-15.54,39.19-23.52,11.67-6.53,23.6-12.44,35.9-17.62,12.86-5.42,30.36-13.4,44.18-6.59,2.46,1.21,4.61,3.34,5.14,6.03.32,1.61.04,3.27-.27,4.87-2.93,15.15-8.89,29.36-13.85,43.89-5.05,14.8-9.22,29.88-13.11,45.01-2.22,8.64-4.39,17.19-7.08,25.68-.08.27-.01.58-.01,1.23,2.67-.35,5.27-.49,7.78-1.04,30.77-6.66,62.15-11.34,93.57-13.58,6.2-.44,12.42-.75,18.64-.87,6.5-.13,13.07-.05,19.36,1.57,1.25.32,2.77,1.15,2.51,2.41-.26,1.25-1.96,1.43-3.23,1.33-8.06-.59-16.16-.04-24.22.62-31.76,2.58-63.38,6.87-94.68,12.83-6.9,1.31-13.88,2.55-20.66,4.38-2.78.75-3,5.73-3.6,7.96-.98,3.65-2.07,7.28-3.22,10.88-4.12,12.87-8.45,25.8-14.32,38-3.61,7.5-8.08,15.01-14.51,20.44-10.25,8.66-25.3,9.97-36.23,1.67-4.37-3.31-7.67-7.81-10.75-12.34-1.78-2.61-3.52-5.27-5-8.06-1.61-3.04-2.91-6.22-4.05-9.46-.57-1.62-1.1-3.26-1.61-4.91-.41-1.34-.66-3.5-1.52-4.54-.41.13-.43.43-.54.85-1.91,7.35-3.92,14.17-7.51,20.92-1.63,3.06-3.5,6.09-6.19,8.27s-6.37,3.4-9.7,2.44c-1.96-.57-3.65-1.84-5.1-3.28-3.93-3.9-6.32-9.08-8.21-14.29-2.08-5.75-3.76-11.51-4.34-17.63-.06-.6-.19-1.33-.76-1.54-.59-.21-1.18.29-1.53.81-1.38,2.01-1.48,4.59-1.6,7.03-.75,15.49-3.46,32.05-10.41,46.05-.85,1.71-1.82,3.4-3.18,4.75-2.38,2.35-6.05,3.47-9.22,2.42-2.25-.74-3.98-2.42-5.51-4.16-.6-.68-4.55-4.45-4.38-5.21-.12.54-.29,1.07-.36,1.62-1.27,10.36-1.59,20.96-4.98,30.93-1.23,3.63-3.06,7.36-6.41,9.22-2.57,1.43-5.74,1.54-8.59.78s-5.42-2.31-7.79-4.06c-7.48-5.51-13.87-13.12-18.75-20.99-3.25-5.24-5.71-10.98-8.44-16.5-.09-.18-.33-.28-.63-.51-.26.44-.55.78-.68,1.18-2.64,7.79-5.25,15.59-7.88,23.38-.22.65-.49,1.29-.77,1.92-2.12,4.68-4.16,9.4-6.39,14.03-1.96,4.08-4.02,8.13-6.76,11.75-1.48,1.95-3.26,3.68-4.87,5.53-2.91,3.36-9.43,2.37-11.2-1.65-.66-1.49-.78-3.15-.77-4.78.01-3.89.69-7.77,1.97-11.43.6-1.73,1.28-3.83,2.37-5.32.82-1.12,2.17-1.36,2.18.48,0,.69-.3,1.35-.49,2.02-.4,1.37-.36,2.83-.32,4.26.08,2.85.16,5.69.24,8.54.03,1.01.27,2.29,1.26,2.49.77.15,1.44-.5,1.94-1.1,7.59-9.15,12.03-21.08,16.33-32.04,2.27-5.78,3.88-11.82,5.72-17.77,1.2-3.89,2.28-7.82,3.41-11.73.64-2.2.04-4.28-.72-6.3-.53-1.41-1.55-1.75-2.97-1.1-19.19,8.73-38.61,16.92-57.83,25.59-12.06,5.44-24.5,10.52-36.17,16.76-1.7.91-2.63.46-4.44.46-2.15,0-1.8-3.07-1.14-4.22,1.22-2.11,3.56-3.91,5.3-5.56,14.78-14.04,29.59-28.1,45.61-40.74,6.84-5.39,13.59-10.8,20.25-16.43,3.28-2.78,6.44-5.7,9.65-8.56,2.81-2.5,5.58-5.06,8.45-7.49,1.41-1.2,1.65-2.43,1.31-4.25-6.45-34.28-11.56-68.62-9.61-103.62,2.45-43.85,14.78-93.06,45.73-125.83,4.05-4.29,8.6-8.37,14.19-10.24,3.82-1.28,8.5-1.28,11.36,1.56,1.63,1.62,2.41,3.9,3.04,6.11,7.05,24.53.66,50.78-3.36,75.39-3.45,21.11-7.82,42.68-12.13,63.88-2.22,10.93-4.45,21.87-6.56,32.82s-5.76,22.56-5.8,33.38ZM247.07,229.27c.21.25.51.36.91.27,1.79-.42,3.59-.83,5.36-1.34,20.28-5.9,40.91-10.77,61.54-15.31,3.45-.76,6.91-1.51,10.37-2.24,1.72-.36,6.15-.59,6.15-3.27,0-1.52,1.05-3.33,1.42-4.82.55-2.17,1.08-4.35,1.63-6.53,1.1-4.35,2.23-8.69,3.39-13.02,5.83-21.8,12.35-43.44,19.86-64.72,3.12-8.96,6.73-17.93,7-27.56.06-1.51-.08-3.22-1.23-4.21-.74-.63-1.75-.83-2.72-.97-14.34-2.1-28.23,3.93-40.88,9.88-13.7,6.45-27.07,13.59-40.19,21.16-22.29,12.85-44.14,27.09-65.73,41.29-2.14,1.4-6,3.03-6.44,5.88-.13.84-.36,1.66-.44,2.5-1.04,11.26-2.58,22.47-3,33.81-.48,12.89.31,25.7.84,38.56.02.38.13.76.23,1.13.37,1.32.66,1.5,1.96,1.13,5.83-1.65,11.65-3.33,17.48-4.98,4.2-1.19,8.42-2.33,12.63-3.51,2.35-.66,2.55-.88,2.55-3.38,0-9.5-.39-18.97.38-28.45.88-10.81,2.87-21.55,4-32.27.14-1.3.21-2.62.56-3.87.61-2.14,3.14-2.84,4.79-1.35.54.49,1.04,1.2,1.2,1.89,2.23,9.75-.05,21.31-1.2,31.11-.69,5.87-1.45,11.73-2,17.61-.28,3.02-.51,6.04-.65,9.07-.05,1.11-.78,5.34.22,6.51ZM97.11,238.79s.02.07.04.1c-.04-.12,12.42-9.62,13.56-10.58,2.75-2.32,8.8-5.65,9.54-9.4,1.05-5.33,2.18-10.65,3.22-15.99,6.19-31.8,12.43-63.6,18.69-95.38,6.05-30.7,14.02-61.94,9.7-93.44-.13-.95-.27-1.9-.43-2.85-2.18-13.51-18.65.34-23.2,5.53-12.12,13.85-20.35,32.28-26.63,49.39-9.94,27.09-14.63,55.98-15.23,84.78s2.21,57.86,9.91,85.25c.25.88.52,1.75.83,2.61ZM282.69,292.55c5.41-.44,10.7-3.01,14.76-6.43,9.09-7.65,13.71-19.44,18.1-30.14,4.44-10.83,7.87-22.02,11.38-33.18.44-1.39.86-2.8,1.15-4.23.29-1.37-.21-1.86-1.62-1.69-.68.08-1.33.35-2,.53-20.4,5.43-41.16,9.58-61.59,14.96-4.35,1.15-8.69,2.31-13.03,3.5-3.52.97-2.96,4.27-2.47,7.37,2.31,14.49,6.98,30.15,17.15,41.21,3.4,3.7,7.73,6.69,12.64,7.75,1.83.4,3.68.49,5.53.34ZM146.97,337.98c1.15.11,2.33-.09,3.27-.76.87-.62,1.44-1.57,1.93-2.51,2.82-5.42,3.94-11.56,4.54-17.64.89-9.04,2.02-18.28,1.94-27.36-.02-2.47-.91-4.64-1.48-6.94-1.25-5.06-2.44-10.13-3.66-15.2-.38-1.58-.76-1.93-1.94-1.54-10.69,3.5-21.34,6.96-31.81,11.07-1.43.56-2.8,1.25-4.21,1.86-.99.43-1.6,1.17-1.89,2.18-.53,1.84-1.24,3.66-1.55,5.54-.41,2.47-1.1,4.97.04,7.48,7.06,15.59,15.14,33.24,30.61,42.19,1.15.67,2.35,1.28,3.66,1.53.18.03.37.06.55.08ZM200.72,167.82c-.17-.11-.34-.23-.52-.34-.65.37-1.33.69-1.93,1.12-10.57,7.51-21.12,15.03-31.27,23.1-.53.42-.92,1.26-1,1.95-1.01,8.93-.34,18.21-.35,27.22,0,10.77-.9,21.9.03,32.61.98-.26,1.7-.43,2.4-.65,5.93-1.87,11.85-3.77,17.78-5.64,1.83-.58,3.69-1.08,5.51-1.67,1.17-.38,1.99-1.12,2.13-2.45,2.53-24.32,3.9-48.84,6.83-73.07.09-.73.25-1.46.37-2.19ZM116.07,270.02c.97,0,1.45.12,1.84-.02,2.16-.78,4.28-1.69,6.45-2.44,4.42-1.51,8.92-2.79,13.38-4.15,3.83-1.17,8.93-2.07,12.32-4.19,2.87-1.79.54-7.52.14-10.21-.66-4.43-1.27-8.86-1.81-13.3-1.06-8.73-1.87-17.49-2.37-26.26-.02-.34-.22-.68-.32-.99-.3.04-.49,0-.59.08-1.98,1.58-3.95,3.16-5.91,4.76-3.27,2.66-6.39,5.55-9.84,7.95-2.7,1.88-3.94,4.27-4.52,7.36-1.97,10.56-4.69,20.95-6.83,31.46-.65,3.21-1.26,6.43-1.94,9.96ZM22.79,311.28s-.04.04-.06.06c1.83.51,3.54-1.2,5.09-1.92,12.54-5.76,25.18-11.25,37.82-16.78,5.4-2.36,10.77-4.78,16.12-7.26,5.04-2.34,10.21-4.34,15.23-6.7,2.58-1.2,2.75-1.71,2.08-4.52-.11-.45-.23-.89-.34-1.34-1.02-4.1-2.06-8.2-3.06-12.31-.65-2.68-1.21-5.38-1.86-8.05-.11-.46-.51-.85-.86-1.41-1.64,1.06-3.23,1.88-4.56,3-2.93,2.47-5.71,5.12-8.6,7.65-5.49,4.8-10.94,9.65-16.53,14.34-13.74,11.55-27.61,22.69-40.47,35.25ZM192.11,252.85c-.06-.06-.12-.1-.19-.12-.41-.12-.85,0-1.27.14-6.92,2.21-13.84,4.43-20.76,6.64-.99.32-2,.64-2.84,1.26-2.01,1.49-1.59,4.18-1.61,6.37-.02,3.05-.11,6.1-.16,9.15-.07,4.84-.34,9.47.93,14.2s3.61,9.16,6.86,12.81c1,1.12,2.27,2.26,3.77,2.18.76-.04,1.47-.4,2.07-.85,1.44-1.09,2.34-2.74,3.11-4.37,3.59-7.6,5.8-15.78,7.37-24.02.48-2.51,4.49-21.58,2.71-23.39ZM239.54,241.62c-.13-2.15-.34-2.38-2.43-1.87-9.27,2.22-18.93,4.48-27.96,7.5-2.68.9-2.78,1.25-2.4,4.03,1.24,9.3,3.95,18.78,9.15,26.66.65.98,1.36,1.97,2.37,2.58,1.57.95,3.64.79,5.29-.04s2.92-2.24,4.01-3.72c3.18-4.36,4.95-9.53,6.36-14.69s2.88-10.39,4.36-15.58c.46-1.61.85-3.24,1.28-4.87ZM117.81,230.83c-2.01-.26-5.11,3.6-6.56,4.75-3.14,2.5-6.28,5-9.42,7.51-1.87,1.49-3.52,2.8-2.88,5.38.72,2.91,5.09,26.99,8.14,25.75.76-.31,1.19-1.11,1.5-1.87,1.58-3.77,9.06-41.53,9.22-41.51ZM159.8,197.45c-.09-.09-.21-.15-.36-.16-.27-.02-.5.16-.71.34-1.37,1.14-2.75,2.29-4.12,3.43-.85.71-1.74,1.46-2.17,2.48-.44,1.02-.36,2.18-.28,3.29,1.16,15.82,1.92,31.7,4.82,47.33.53,2.85,2.19,1.6,2.4-.58.85-9.13.4-18.55.44-27.71.02-4.82.02-9.65.02-14.47,0-4.27.22-8.55.29-12.82,0-.39-.07-.88-.32-1.13ZM156.68,164.99c-.44.43-.58,1.07-.7,1.67-1.02,5.12-1.85,10.28-2.44,15.47-.32,2.85-2.27,10.02-.55,12.58.09.14,3.95-2.91,4.29-3.2,1.34-1.17,2.09-2.07,2.45-3.84.63-3.09-.32-6.33-.72-9.39-.6-4.64-1.09-8.77-2.33-13.29ZM159.16,268.28l.73-.09c-.13-.84-.25-1.67-.38-2.51-.17.02-.34.05-.5.07.05.84.11,1.69.16,2.53ZM199.58,239.54c-.13.04-.31.06-.31.09,0,.8-.3,1.66.6,2.3-.09-.78-.19-1.57-.29-2.39Z" fill="#937e44" stroke-width="0"/>
  <path d="M252.62,142.16c.73-.02,1.45.09,2.13.35.8.31,1.5.92,1.79,1.72.36,1.01.03,2.12-.14,3.19-.36,2.34.03,4.73-1.14,6.9-1.01,1.87-2.79,3.24-4.81,3.87-.76.24-1.73.49-2.53.39s-1.5-.73-2.07-1.31c-1.49-1.54-2.94-3.3-3.22-5.43-.29-2.23.82-4.46,2.44-6.02,1.8-1.73,4.78-3.59,7.55-3.66Z" fill="#937e44" stroke-width="0"/>
</svg>