<svg xmlns="http://www.w3.org/2000/svg" viewBox="0 0 128 128" id="social-media"><path fill="#231f20" d="M18.607,79.228A14.129,14.129,0,1,0,32.735,93.356,14.144,14.144,0,0,0,18.607,79.228Zm0,26.257A12.129,12.129,0,1,1,30.735,93.356,12.142,12.142,0,0,1,18.607,105.485Z"></path><path fill="#231f20" d="M22.259 85.023a3.432 3.432 0 0 0-1.34-.271H19.8a3.444 3.444 0 0 0-3.44 3.44V90.81H15.345a1 1 0 1 0 0 2h1.019v8.15a1 1 0 0 0 2 0V92.81h2.354a1 1 0 1 0 0-2H18.364V88.192a1.442 1.442 0 0 1 1.44-1.44h1.115a1.426 1.426 0 0 1 .56.113 1 1 0 0 0 .78-1.842zM21.672 44.127A14.129 14.129 0 1 0 7.544 30 14.145 14.145 0 0 0 21.672 44.127zm0-26.258A12.129 12.129 0 1 1 9.544 30 12.143 12.143 0 0 1 21.672 17.869z"></path><path fill="#231f20" d="M16.3,37.771H27.046a3.092,3.092,0,0,0,3.089-3.089V25.314a3.092,3.092,0,0,0-3.089-3.089H16.3a3.093,3.093,0,0,0-3.089,3.089v9.368A3.093,3.093,0,0,0,16.3,37.771ZM15.21,25.314A1.091,1.091,0,0,1,16.3,24.225H27.046a1.09,1.09,0,0,1,1.089,1.089v9.368a1.09,1.09,0,0,1-1.089,1.089H16.3a1.09,1.09,0,0,1-1.089-1.089Z"></path><path fill="#231f20" d="M21.672,34.689a4.371,4.371,0,1,0-4.37-4.371A4.376,4.376,0,0,0,21.672,34.689Zm0-6.742a2.371,2.371,0,1,1-2.37,2.371A2.374,2.374,0,0,1,21.672,27.947Z"></path><circle cx="26.396" cy="25.968" r=".672" fill="#231f20"></circle><path fill="#231f20" d="M123,65.9a14.129,14.129,0,1,0-15.14,14.077,5.846,5.846,0,0,1-.342,1.772l1.869.712a7.863,7.863,0,0,0,.489-2.484A14.135,14.135,0,0,0,123,65.9ZM108.868,78.025A12.129,12.129,0,1,1,121,65.9,12.142,12.142,0,0,1,108.868,78.025Z"></path><path fill="#231f20" d="M117.927 60.676a1.064 1.064 0 0 0-.281-.194 1.01 1.01 0 0 0-.287-1.165.976.976 0 0 0-1.276.021 7.1 7.1 0 0 1-1.2.481A4.323 4.323 0 0 0 107.9 62.9a8.069 8.069 0 0 1-5.218-3 1 1 0 0 0-.8-.393h0a1 1 0 0 0-.8.4 4.651 4.651 0 0 0-.431 3.894 1 1 0 0 0-.352.736 4.6 4.6 0 0 0 1.289 3.246 1.006 1.006 0 0 0 .038.651 4.345 4.345 0 0 0 1.518 2.121 5.956 5.956 0 0 1-2.333.248 1 1 0 0 0-.64 1.833 11.423 11.423 0 0 0 5.51 1.731 6.541 6.541 0 0 0 1-.075 11.172 11.172 0 0 0 5.729-2.191 10.58 10.58 0 0 0 3.709-5.861 11.965 11.965 0 0 0 .261-1.567q.039-.395.056-.79c0-.033 0-.1 0-.184a10.808 10.808 0 0 0 1.578-1.7A1.024 1.024 0 0 0 117.927 60.676zm-3.478 3.118c-.009.226-.026.452-.048.677a9.921 9.921 0 0 1-.217 1.3 8.513 8.513 0 0 1-3.026 4.773 9.306 9.306 0 0 1-4.77 1.765 5.635 5.635 0 0 1-1.99-.089 7.514 7.514 0 0 0 1.812-1.018 1 1 0 0 0-.452-1.758 3.317 3.317 0 0 1-1.54-.59 1 1 0 0 0 .458-1.425l-.055-.093a1 1 0 0 0-.63-.464 2.023 2.023 0 0 1-1.284-.88 1 1 0 0 0 .608-1.748 2.5 2.5 0 0 1-.894-1.717A10.68 10.68 0 0 0 108.959 65a.932.932 0 0 0 .8-.373 1 1 0 0 0 .193-.864 2.282 2.282 0 0 1-.065-.547 2.33 2.33 0 0 1 2.326-2.327 2.3 2.3 0 0 1 1.7.738.987.987 0 0 0 .272.207 1 1 0 0 0 .092.681.981.981 0 0 0 .261.316A2.29 2.29 0 0 0 114.449 63.794zM95.1 33.661A11.358 11.358 0 1 0 83.745 22.3 11.37 11.37 0 0 0 95.1 33.661zm0-20.715A9.358 9.358 0 1 1 85.745 22.3 9.369 9.369 0 0 1 95.1 12.946z"></path><path fill="#231f20" d="M93.363,28.81a.953.953,0,0,0,.167.027c.056,0,.116.011.177.02-.008.036-.016.071-.025.1a1.06,1.06,0,0,0-.03.157l-.059.531A1.329,1.329,0,0,0,94.1,30.8a1.253,1.253,0,0,0,.765.244,1.941,1.941,0,0,0,.678-.135,26.721,26.721,0,0,0,5.934-4.2c2.615-2.841,2.878-5.973.784-8.753-.09-.143-2.284-3.493-8.113-3.054-.024,0-.121.016-.145.02-1.427.214-6.161,1.28-7.137,6.049C86.858,21.032,85.941,26.964,93.363,28.81Zm-4.53-7.47c.691-3.371,4.055-4.228,5.469-4.44l.038-.007c4.542-.327,6.173,2.042,6.28,2.2,1.558,2.074,1.358,4.122-.613,6.263a22.742,22.742,0,0,1-4.254,3.163,1.872,1.872,0,0,0-.086-.593c-.254-.763-1.153-1.008-1.9-1.075C88.27,25.444,88.815,21.468,88.833,21.34Z"></path><path fill="#231f20" d="M92.183 22.85a.9.9 0 1 0-.9-.9A.895.895 0 0 0 92.183 22.85zM95.652 22.85a.9.9 0 1 0-.895-.9A.895.895 0 0 0 95.652 22.85z"></path><circle cx="99.12" cy="21.955" r=".895" fill="#231f20"></circle><rect width="2.843" height="2" x="38.911" y="113.136" fill="#231f20" transform="rotate(-22.118 40.332 114.139)"></rect><path fill="#231f20" d="M21.143 115.565a11.355 11.355 0 0 0 2.96 1.4l.6-1.909a9.258 9.258 0 0 1-2.437-1.151zM27.439 115.607l-.206 1.989a22.034 22.034 0 0 0 2.245.112q.432 0 .887-.016l-.07-2A20.422 20.422 0 0 1 27.439 115.607zM35.322 115.094c-.734.14-1.453.258-2.137.349l.265 1.983c.752-.1 1.542-.231 2.347-.387a1 1 0 0 0 .187-.055l.628-.256-.753-1.852zM17.467 109.974a7.432 7.432 0 0 0 1.291 3.232l1.653-1.127a5.666 5.666 0 0 1-.953-2.3zM38.43 26.221a12.706 12.706 0 0 1 1.9.147l.3-1.977a14.752 14.752 0 0 0-2.2-.17 9.266 9.266 0 0 0-1.066.051l.24 1.986A7.543 7.543 0 0 1 38.43 26.221zM50.387 38.065L52.37 37.8a22.864 22.864 0 0 0-.617-3.07l-1.928.533A20.863 20.863 0 0 1 50.387 38.065zM46.586 26.791a12.829 12.829 0 0 0-2.842-1.566l-.739 1.86A10.762 10.762 0 0 1 45.4 28.4zM50.647 31.758a14.193 14.193 0 0 0-1.713-2.723l-1.557 1.256a12.171 12.171 0 0 1 1.47 2.339zM83.6 23.941l-.228-1.988c-.882.1-1.731.241-2.522.413l.427 1.955A23.184 23.184 0 0 1 83.6 23.941zM74.172 28.282L72.6 27.052A10.568 10.568 0 0 0 71 29.938l1.879.686A8.564 8.564 0 0 1 74.172 28.282zM78.566 25.136l-.745-1.856A14 14 0 0 0 74.982 24.8l1.149 1.637A11.978 11.978 0 0 1 78.566 25.136zM72.463 35.971a9.343 9.343 0 0 1-.172-1.878c0-.253.008-.525.029-.811l-1.994-.147c-.025.338-.035.659-.035.958a11.133 11.133 0 0 0 .224 2.332zM103.867 85.33l.877 1.8a10.9 10.9 0 0 0 2.727-1.844L106.1 83.832A8.885 8.885 0 0 1 103.867 85.33zM98.407 86.888l.293 1.979a25.783 25.783 0 0 0 3.059-.635l-.532-1.928A23.446 23.446 0 0 1 98.407 86.888zM63.262 62.478a11.911 11.911 0 1 0 11.911 11.91A11.924 11.924 0 0 0 63.262 62.478zm7.626 5.589a28.292 28.292 0 0 1-3.849.768 15.287 15.287 0 0 0-2.21-4.221A9.9 9.9 0 0 1 70.888 68.067zm-7.777 15.4a13.148 13.148 0 0 1-2-3.713 32.19 32.19 0 0 1 4 .006A13.164 13.164 0 0 1 63.111 83.469zm-2.552-5.7a15.7 15.7 0 0 1-.3-2.281h5.7a15.616 15.616 0 0 1-.3 2.286A33.42 33.42 0 0 0 60.559 77.77zm4.425-8.748a32.317 32.317 0 0 1-3.747 0 13.051 13.051 0 0 1 1.874-3.374A13.018 13.018 0 0 1 64.984 69.022zm-1.917 2.084c.811 0 1.657-.033 2.528-.1a15.8 15.8 0 0 1 .363 2.483H60.266a15.689 15.689 0 0 1 .36-2.474C61.4 71.07 62.212 71.106 63.067 71.106zm-4.8 2.383H53.4a9.844 9.844 0 0 1 1-3.51 31.851 31.851 0 0 0 4.237.836A17.7 17.7 0 0 0 58.272 73.489zm-.007 2a17.744 17.744 0 0 0 .3 2.487 31.949 31.949 0 0 0-4.16.822 9.783 9.783 0 0 1-.983-3.309zm9.693 0h5.15a9.822 9.822 0 0 1-1.066 3.482A30.357 30.357 0 0 0 67.658 78 17.583 17.583 0 0 0 67.958 75.489zm-.006-2a17.8 17.8 0 0 0-.37-2.7 30.148 30.148 0 0 0 4.465-.972 9.827 9.827 0 0 1 1.08 3.672zm-6.593-8.823a15.277 15.277 0 0 0-2.178 4.177 32.25 32.25 0 0 1-3.645-.646A9.907 9.907 0 0 1 61.359 64.666zM55.536 80.58a32.255 32.255 0 0 1 3.537-.632 15.536 15.536 0 0 0 2.005 4.1A9.921 9.921 0 0 1 55.536 80.58zm9.558 3.542a15.5 15.5 0 0 0 2.054-4.168 28.322 28.322 0 0 1 3.739.756A9.906 9.906 0 0 1 65.094 84.122zM68.044 104.941H58.851a2.449 2.449 0 0 0 0 4.9h9.193a2.449 2.449 0 0 0 0-4.9zm0 2.9H58.851a.449.449 0 0 1-.448-.449.454.454 0 0 1 .448-.448h9.193a.454.454 0 0 1 .447.448A.448.448 0 0 1 68.044 107.838z"></path><path fill="#231f20" d="M98.215,110.723c-.084-.258-.311-.85-.58-1.548-.378-.979-1.073-2.779-1.168-3.227.012-1.776.1-3.592.177-5.35a79.6,79.6,0,0,0,.053-9.577,39.557,39.557,0,0,0-2.222-9.5l-1.653-5.11a7.608,7.608,0,0,1-.367-2.313V60.593a1,1,0,0,0-1.013-1,8.416,8.416,0,0,0-6.023,2.621c0-.151,0-.309,0-.454l-.034-19.435A2.289,2.289,0,0,0,83.1,40.039H43.8a2.289,2.289,0,0,0-2.286,2.286V60.916H40.467A3.091,3.091,0,0,0,37.38,64v4.353a3.075,3.075,0,0,0,1.611,2.694,3.078,3.078,0,0,0-1.611,2.694V78.1a3.075,3.075,0,0,0,1.611,2.694,3.077,3.077,0,0,0-1.611,2.694v4.353A3.076,3.076,0,0,0,39,90.535a3.078,3.078,0,0,0-1.619,2.7v4.343a3.09,3.09,0,0,0,3.087,3.087h1.051v9.558a2.289,2.289,0,0,0,2.286,2.287H61.448c1.92,2.27,3.919,4.132,7.418,4.5l2.527,9.949a1,1,0,0,0,.968.754,1.017,1.017,0,0,0,.2-.021l27.657-5.734a1,1,0,0,0,.761-1.245Zm-54.7-68.4a.287.287,0,0,1,.286-.286H83.1a.29.29,0,0,1,.286.288l.034,19.435c0,.642,0,1.359-.01,2.038,0,.772-.01,1.5-.007,2.008a8.379,8.379,0,0,0-.305,2.14L82.924,83.5q-.4.3-.785.617V46.247A2.243,2.243,0,0,0,79.9,44.006H47.159a2.243,2.243,0,0,0-2.241,2.241V61.094c-.129-.035-.261-.054-.392-.078-.078-.014-.154-.035-.233-.046a5.364,5.364,0,0,0-.741-.054ZM75.87,102.45H47.159a.239.239,0,0,1-.241-.241V99.446q.18-.15.351-.321a5.2,5.2,0,0,0,1.508-4.335c-.008-.069-.023-.135-.034-.2-.021-.135-.044-.27-.075-.4-.019-.079-.044-.156-.067-.234-.034-.117-.069-.234-.11-.348-.03-.082-.065-.162-.1-.242-.045-.106-.092-.211-.143-.313-.041-.081-.084-.161-.13-.24-.055-.1-.113-.19-.174-.283s-.1-.155-.159-.23-.135-.174-.206-.258-.119-.144-.183-.212c-.079-.085-.163-.164-.248-.243-.064-.06-.126-.123-.194-.18-.013-.011-.024-.024-.037-.035V89.705q.18-.15.351-.32a5.2,5.2,0,0,0,1.547-3.725,5.333,5.333,0,0,0-.039-.62c-.008-.068-.023-.135-.034-.2-.021-.135-.044-.269-.075-.4-.019-.08-.044-.157-.067-.235-.034-.117-.069-.233-.11-.347-.03-.082-.065-.162-.1-.243-.045-.106-.092-.21-.143-.312-.041-.082-.084-.161-.13-.24-.055-.1-.113-.191-.174-.283s-.1-.155-.159-.231-.135-.174-.206-.258-.119-.144-.183-.212c-.079-.084-.163-.163-.248-.243-.064-.06-.126-.123-.194-.181l-.037-.034V79.964q.182-.151.355-.324a5.231,5.231,0,0,0,1.543-3.72,5.306,5.306,0,0,0-.039-.62c-.008-.069-.023-.136-.034-.2-.021-.135-.044-.269-.075-.4-.019-.079-.044-.157-.067-.235-.034-.117-.069-.233-.11-.347-.03-.082-.065-.162-.1-.243-.045-.105-.092-.21-.143-.312-.041-.081-.084-.161-.13-.24-.055-.1-.113-.19-.174-.283-.051-.078-.1-.155-.159-.23s-.135-.174-.206-.259-.119-.143-.183-.212c-.079-.084-.163-.163-.248-.242-.064-.061-.126-.124-.194-.181-.013-.011-.024-.024-.037-.035V70.224q.18-.151.351-.321a5.2,5.2,0,0,0,1.547-3.724,5.306,5.306,0,0,0-.039-.62c-.008-.069-.023-.135-.034-.2-.021-.134-.044-.269-.075-.4-.019-.079-.044-.156-.067-.235-.034-.117-.069-.233-.11-.347-.03-.082-.065-.162-.1-.243-.045-.105-.092-.209-.143-.312-.041-.081-.084-.161-.13-.24-.055-.1-.113-.19-.174-.283-.051-.078-.1-.155-.159-.23s-.135-.174-.206-.259-.119-.143-.183-.211c-.079-.085-.163-.164-.248-.243-.064-.061-.126-.124-.194-.181-.013-.011-.024-.024-.037-.034V46.247a.239.239,0,0,1,.241-.241H79.9a.244.244,0,0,1,.241.241V86.08a19.4,19.4,0,0,0-4.354,9.036v0A19.659,19.659,0,0,0,75.87,102.45ZM45.361,73.207a3.256,3.256,0,0,1,.5,5.018,3.275,3.275,0,0,1-2.307.958H40.467A1.089,1.089,0,0,1,39.38,78.1V73.743a1.088,1.088,0,0,1,1.087-1.086h3.085A3.2,3.2,0,0,1,45.361,73.207Zm0,9.741a3.259,3.259,0,0,1,1.455,2.712,3.215,3.215,0,0,1-.957,2.306,3.124,3.124,0,0,1-.5.411,3.183,3.183,0,0,1-1.8.547H40.467a1.089,1.089,0,0,1-1.087-1.087V83.484A1.089,1.089,0,0,1,40.467,82.4h3.085A3.191,3.191,0,0,1,45.361,82.948ZM39.38,64a1.088,1.088,0,0,1,1.087-1.086h3.085a3.2,3.2,0,0,1,1.806.548l.006,0a3.262,3.262,0,0,1,1.452,2.711,3.212,3.212,0,0,1-.957,2.3,3.13,3.13,0,0,1-.5.412,3.189,3.189,0,0,1-1.8.546H40.467a1.089,1.089,0,0,1-1.087-1.087Zm1.087,34.662a1.088,1.088,0,0,1-1.087-1.087V93.234a1.089,1.089,0,0,1,1.087-1.087h3.085a3.189,3.189,0,0,1,1.809.551,3.258,3.258,0,0,1,1.455,2.712,3.2,3.2,0,0,1-.957,2.3,3.078,3.078,0,0,1-.5.412,3.189,3.189,0,0,1-1.8.546H40.467Zm3.051,11.558v-9.558h.034a5.338,5.338,0,0,0,.74-.054c.083-.011.164-.033.246-.048.127-.024.255-.042.38-.075v1.722a2.243,2.243,0,0,0,2.241,2.241H76.375q.282.936.651,1.835c.041.1.081.2.122.3.061.142.122.282.186.421.122.279.252.55.375.788a6.064,6.064,0,0,0,.3.574,18.919,18.919,0,0,0,.978,1.644h0a.332.332,0,0,1,.059.2.315.315,0,0,1-.038.137.3.3,0,0,1-.276.16H43.8A.287.287,0,0,1,43.518,110.222ZM73.1,125.544,70.875,116.8a1,1,0,0,0-.709-1.7,7.635,7.635,0,0,1-6.023-2.587H78.729a2.312,2.312,0,0,0,1.922-3.6c-.039-.059-.072-.117-.11-.176-.125-.194-.25-.387-.364-.579-.148-.249-.288-.5-.421-.752a5.226,5.226,0,0,1-.245-.474c-.271-.531-.506-1.077-.723-1.63l-.178-.48c-.1-.283-.185-.57-.272-.857-.079-.253-.166-.5-.233-.759l-.049-.19a17.783,17.783,0,0,1-.3-7.526,17.332,17.332,0,0,1,4.125-8.348l.006-.006a14.986,14.986,0,0,1,2.6-2.294l.426-.294.186-16.57a6.415,6.415,0,0,1,.23-1.621l.078-.181v-.058a6.386,6.386,0,0,1,5.05-4.428V74.1a9.59,9.59,0,0,0,.463,2.926l1.654,5.113A38.032,38.032,0,0,1,94.7,91.169a78.4,78.4,0,0,1-.057,9.338c-.082,1.778-.166,3.616-.179,5.433-.02.412.175,1.036,1.3,3.955.252.653.466,1.206.532,1.405l2.47,8.921Z"></path></svg>